<svg viewBox="0 0 1920 1080" xmlns="http://www.w3.org/2000/svg"><defs><linearGradient id="g" x1="0" y1="0" x2="1" y2="1"><stop offset="0" stop-color="#2563EB"/><stop offset="1" stop-color="#06B6D4"/></linearGradient><linearGradient id="bg" x1="0" y1="0" x2="1" y2="1"><stop offset="0" stop-color="#0B1F3A"/><stop offset="0.6" stop-color="#0E2C52"/><stop offset="1" stop-color="#06B6D4"/></linearGradient><filter id="gl" x="-50%" y="-50%" width="200%" height="200%"><feGaussianBlur stdDeviation="22"/></filter></defs>
<rect width="1920" height="1080" fill="url(#bg)"/>
<circle cx="1500" cy="360" r="150" fill="none" stroke="#22D3EE" stroke-width="1.5" opacity="0.12"/>
<circle cx="1500" cy="360" r="250" fill="none" stroke="#22D3EE" stroke-width="1.5" opacity="0.12"/>
<circle cx="1500" cy="360" r="350" fill="none" stroke="#22D3EE" stroke-width="1.5" opacity="0.12"/>
<circle cx="1500" cy="360" r="460" fill="none" stroke="#22D3EE" stroke-width="1.5" opacity="0.12"/>
<line x1="1500" y1="360" x2="1500" y2="110" stroke="#22D3EE" stroke-width="1.4" stroke-dasharray="3 9" opacity="0.25"/>
<circle cx="1500" cy="110" r="12" fill="#22D3EE" opacity="0.5"/>
<line x1="1500" y1="360" x2="1738" y2="283" stroke="#22D3EE" stroke-width="1.4" stroke-dasharray="3 9" opacity="0.25"/>
<circle cx="1738" cy="283" r="12" fill="#22D3EE" opacity="0.5"/>
<line x1="1500" y1="360" x2="1647" y2="562" stroke="#22D3EE" stroke-width="1.4" stroke-dasharray="3 9" opacity="0.25"/>
<circle cx="1647" cy="562" r="12" fill="#22D3EE" opacity="0.5"/>
<line x1="1500" y1="360" x2="1353" y2="562" stroke="#22D3EE" stroke-width="1.4" stroke-dasharray="3 9" opacity="0.25"/>
<circle cx="1353" cy="562" r="12" fill="#22D3EE" opacity="0.5"/>
<line x1="1500" y1="360" x2="1262" y2="283" stroke="#22D3EE" stroke-width="1.4" stroke-dasharray="3 9" opacity="0.25"/>
<circle cx="1262" cy="283" r="12" fill="#22D3EE" opacity="0.5"/>
<circle cx="1500" cy="360" r="70" fill="url(#g)" opacity="0.9"/>
<path d="M 1517.78 334.61 A 31 31 0 1 1 1474.61 342.22" fill="none" stroke="#FFFFFF" stroke-width="7" stroke-linecap="round"/><path d="M 1474.61 342.22 L 1459.81 348.10 L 1474.15 358.13 Z" fill="#FFFFFF"/><circle cx="1500" cy="360" r="7.70" fill="#FFFFFF"/>
<g transform="translate(140,120)"><rect width="86" height="86" rx="22" fill="url(#g)"/></g>
<path d="M 195.05 145.80 A 21 21 0 1 1 165.80 150.95" fill="none" stroke="#FFFFFF" stroke-width="6" stroke-linecap="round"/><path d="M 165.80 150.95 L 153.12 155.99 L 165.40 164.60 Z" fill="#FFFFFF"/><circle cx="183" cy="163" r="6.60" fill="#FFFFFF"/>
<text x="250" y="180" font-family="Inter, 'DejaVu Sans', Arial, sans-serif" font-size="56" font-weight="800" fill="#FFFFFF" letter-spacing="-1.5">CV<tspan fill="#22D3EE">Ops</tspan></text>
<text x="140" y="560" font-family="Inter, 'DejaVu Sans', Arial, sans-serif" font-size="118" font-weight="800" fill="#FFFFFF" letter-spacing="-4">The ML lifecycle,</text>
<text x="140" y="690" font-family="Inter, 'DejaVu Sans', Arial, sans-serif" font-size="118" font-weight="800" fill="#22D3EE" letter-spacing="-4">in one place.</text>
<rect x="146" y="760" width="90" height="7" rx="3" fill="url(#g)"/>
<text x="140" y="838" font-family="Inter, 'DejaVu Sans', Arial, sans-serif" font-size="40" font-weight="500" fill="#C9D8EC">Track datasets · version models · orchestrate workflows · audit everything.</text>
<text x="140" y="900" font-family="Inter, 'DejaVu Sans', Arial, sans-serif" font-size="34" font-weight="600" fill="#22D3EE">One dashboard that replaces five fragmented tools.</text>
</svg>