<svg viewBox="0 0 1500 500" xmlns="http://www.w3.org/2000/svg"><defs><linearGradient id="g" x1="0" y1="0" x2="1" y2="1"><stop offset="0" stop-color="#2563EB"/><stop offset="1" stop-color="#06B6D4"/></linearGradient><linearGradient id="bg" x1="0" y1="0" x2="1" y2="0"><stop offset="0" stop-color="#2563EB"/><stop offset="1" stop-color="#06B6D4"/></linearGradient></defs>
<rect width="1500" height="500" fill="url(#bg)"/>
<circle cx="60" cy="40" r="1.6" fill="#FFFFFF" opacity="0.10"/><circle cx="60" cy="86" r="1.6" fill="#FFFFFF" opacity="0.10"/><circle cx="60" cy="132" r="1.6" fill="#FFFFFF" opacity="0.10"/><circle cx="60" cy="178" r="1.6" fill="#FFFFFF" opacity="0.10"/><circle cx="60" cy="224" r="1.6" fill="#FFFFFF" opacity="0.10"/><circle cx="60" cy="270" r="1.6" fill="#FFFFFF" opacity="0.10"/><circle cx="60" cy="316" r="1.6" fill="#FFFFFF" opacity="0.10"/><circle cx="60" cy="362" r="1.6" fill="#FFFFFF" opacity="0.10"/><circle cx="60" cy="408" r="1.6" fill="#FFFFFF" opacity="0.10"/><circle cx="60" cy="454" r="1.6" fill="#FFFFFF" opacity="0.10"/><circle cx="106" cy="40" r="1.6" fill="#FFFFFF" opacity="0.10"/><circle cx="106" cy="86" r="1.6" fill="#FFFFFF" opacity="0.10"/><circle cx="106" cy="132" r="1.6" fill="#FFFFFF" opacity="0.10"/><circle cx="106" cy="178" r="1.6" fill="#FFFFFF" opacity="0.10"/><circle cx="106" cy="224" r="1.6" fill="#FFFFFF" opacity="0.10"/><circle cx="106" cy="270" r="1.6" fill="#FFFFFF" opacity="0.10"/><circle cx="106" cy="316" r="1.6" fill="#FFFFFF" opacity="0.10"/><circle cx="106" cy="362" r="1.6" fill="#FFFFFF" opacity="0.10"/><circle cx="106" cy="408" r="1.6" fill="#FFFFFF" opacity="0.10"/><circle cx="106" cy="454" r="1.6" fill="#FFFFFF" opacity="0.10"/><circle cx="152" cy="40" r="1.6" fill="#FFFFFF" opacity="0.10"/><circle cx="152" cy="86" r="1.6" fill="#FFFFFF" opacity="0.10"/><circle cx="152" cy="132" r="1.6" fill="#FFFFFF" opacity="0.10"/><circle cx="152" cy="178" r="1.6" fill="#FFFFFF" opacity="0.10"/><circle cx="152" cy="224" r="1.6" fill="#FFFFFF" opacity="0.10"/><circle cx="152" cy="270" r="1.6" fill="#FFFFFF" opacity="0.10"/><circle cx="152" cy="316" r="1.6" fill="#FFFFFF" opacity="0.10"/><circle cx="152" cy="362" r="1.6" fill="#FFFFFF" opacity="0.10"/><circle cx="152" cy="408" r="1.6" fill="#FFFFFF" opacity="0.10"/><circle cx="152" cy="454" r="1.6" fill="#FFFFFF" opacity="0.10"/><circle cx="198" cy="40" r="1.6" fill="#FFFFFF" opacity="0.10"/><circle cx="198" cy="86" r="1.6" fill="#FFFFFF" opacity="0.10"/><circle cx="198" cy="132" r="1.6" fill="#FFFFFF" opacity="0.10"/><circle cx="198" cy="178" r="1.6" fill="#FFFFFF" opacity="0.10"/><circle cx="198" cy="224" r="1.6" fill="#FFFFFF" opacity="0.10"/><circle cx="198" cy="270" r="1.6" fill="#FFFFFF" opacity="0.10"/><circle cx="198" cy="316" r="1.6" fill="#FFFFFF" opacity="0.10"/><circle cx="198" cy="362" r="1.6" fill="#FFFFFF" opacity="0.10"/><circle cx="198" cy="408" r="1.6" fill="#FFFFFF" opacity="0.10"/><circle cx="198" cy="454" r="1.6" fill="#FFFFFF" opacity="0.10"/><circle cx="244" cy="40" r="1.6" fill="#FFFFFF" opacity="0.10"/><circle cx="244" cy="86" r="1.6" fill="#FFFFFF" opacity="0.10"/><circle cx="244" cy="132" r="1.6" fill="#FFFFFF" opacity="0.10"/><circle cx="244" cy="178" r="1.6" fill="#FFFFFF" opacity="0.10"/><circle cx="244" cy="224" r="1.6" fill="#FFFFFF" opacity="0.10"/><circle cx="244" cy="270" r="1.6" fill="#FFFFFF" opacity="0.10"/><circle cx="244" cy="316" r="1.6" fill="#FFFFFF" opacity="0.10"/><circle cx="244" cy="362" r="1.6" fill="#FFFFFF" opacity="0.10"/><circle cx="244" cy="408" r="1.6" fill="#FFFFFF" opacity="0.10"/><circle cx="244" cy="454" r="1.6" fill="#FFFFFF" opacity="0.10"/><circle cx="290" cy="40" r="1.6" fill="#FFFFFF" opacity="0.10"/><circle cx="290" cy="86" r="1.6" fill="#FFFFFF" opacity="0.10"/><circle cx="290" cy="132" r="1.6" fill="#FFFFFF" opacity="0.10"/><circle cx="290" cy="178" r="1.6" fill="#FFFFFF" opacity="0.10"/><circle cx="290" cy="224" r="1.6" fill="#FFFFFF" opacity="0.10"/><circle cx="290" cy="270" r="1.6" fill="#FFFFFF" opacity="0.10"/><circle cx="290" cy="316" r="1.6" fill="#FFFFFF" opacity="0.10"/><circle cx="290" cy="362" r="1.6" fill="#FFFFFF" opacity="0.10"/><circle cx="290" cy="408" r="1.6" fill="#FFFFFF" opacity="0.10"/><circle cx="290" cy="454" r="1.6" fill="#FFFFFF" opacity="0.10"/><circle cx="336" cy="40" r="1.6" fill="#FFFFFF" opacity="0.10"/><circle cx="336" cy="86" r="1.6" fill="#FFFFFF" opacity="0.10"/><circle cx="336" cy="132" r="1.6" fill="#FFFFFF" opacity="0.10"/><circle cx="336" cy="178" r="1.6" fill="#FFFFFF" opacity="0.10"/><circle cx="336" cy="224" r="1.6" fill="#FFFFFF" opacity="0.10"/><circle cx="336" cy="270" r="1.6" fill="#FFFFFF" opacity="0.10"/><circle cx="336" cy="316" r="1.6" fill="#FFFFFF" opacity="0.10"/><circle cx="336" cy="362" r="1.6" fill="#FFFFFF" opacity="0.10"/><circle cx="336" cy="408" r="1.6" fill="#FFFFFF" opacity="0.10"/><circle cx="336" cy="454" r="1.6" fill="#FFFFFF" opacity="0.10"/><circle cx="382" cy="40" r="1.6" fill="#FFFFFF" opacity="0.10"/><circle cx="382" cy="86" r="1.6" fill="#FFFFFF" opacity="0.10"/><circle cx="382" cy="132" r="1.6" fill="#FFFFFF" opacity="0.10"/><circle cx="382" cy="178" r="1.6" fill="#FFFFFF" opacity="0.10"/><circle cx="382" cy="224" r="1.6" fill="#FFFFFF" opacity="0.10"/><circle cx="382" cy="270" r="1.6" fill="#FFFFFF" opacity="0.10"/><circle cx="382" cy="316" r="1.6" fill="#FFFFFF" opacity="0.10"/><circle cx="382" cy="362" r="1.6" fill="#FFFFFF" opacity="0.10"/><circle cx="382" cy="408" r="1.6" fill="#FFFFFF" opacity="0.10"/><circle cx="382" cy="454" r="1.6" fill="#FFFFFF" opacity="0.10"/><circle cx="428" cy="40" r="1.6" fill="#FFFFFF" opacity="0.10"/><circle cx="428" cy="86" r="1.6" fill="#FFFFFF" opacity="0.10"/><circle cx="428" cy="132" r="1.6" fill="#FFFFFF" opacity="0.10"/><circle cx="428" cy="178" r="1.6" fill="#FFFFFF" opacity="0.10"/><circle cx="428" cy="224" r="1.6" fill="#FFFFFF" opacity="0.10"/><circle cx="428" cy="270" r="1.6" fill="#FFFFFF" opacity="0.10"/><circle cx="428" cy="316" r="1.6" fill="#FFFFFF" opacity="0.10"/><circle cx="428" cy="362" r="1.6" fill="#FFFFFF" opacity="0.10"/><circle cx="428" cy="408" r="1.6" fill="#FFFFFF" opacity="0.10"/><circle cx="428" cy="454" r="1.6" fill="#FFFFFF" opacity="0.10"/><circle cx="474" cy="40" r="1.6" fill="#FFFFFF" opacity="0.10"/><circle cx="474" cy="86" r="1.6" fill="#FFFFFF" opacity="0.10"/><circle cx="474" cy="132" r="1.6" fill="#FFFFFF" opacity="0.10"/><circle cx="474" cy="178" r="1.6" fill="#FFFFFF" opacity="0.10"/><circle cx="474" cy="224" r="1.6" fill="#FFFFFF" opacity="0.10"/><circle cx="474" cy="270" r="1.6" fill="#FFFFFF" opacity="0.10"/><circle cx="474" cy="316" r="1.6" fill="#FFFFFF" opacity="0.10"/><circle cx="474" cy="362" r="1.6" fill="#FFFFFF" opacity="0.10"/><circle cx="474" cy="408" r="1.6" fill="#FFFFFF" opacity="0.10"/><circle cx="474" cy="454" r="1.6" fill="#FFFFFF" opacity="0.10"/><circle cx="520" cy="40" r="1.6" fill="#FFFFFF" opacity="0.10"/><circle cx="520" cy="86" r="1.6" fill="#FFFFFF" opacity="0.10"/><circle cx="520" cy="132" r="1.6" fill="#FFFFFF" opacity="0.10"/><circle cx="520" cy="178" r="1.6" fill="#FFFFFF" opacity="0.10"/><circle cx="520" cy="224" r="1.6" fill="#FFFFFF" opacity="0.10"/><circle cx="520" cy="270" r="1.6" fill="#FFFFFF" opacity="0.10"/><circle cx="520" cy="316" r="1.6" fill="#FFFFFF" opacity="0.10"/><circle cx="520" cy="362" r="1.6" fill="#FFFFFF" opacity="0.10"/><circle cx="520" cy="408" r="1.6" fill="#FFFFFF" opacity="0.10"/><circle cx="520" cy="454" r="1.6" fill="#FFFFFF" opacity="0.10"/><circle cx="566" cy="40" r="1.6" fill="#FFFFFF" opacity="0.10"/><circle cx="566" cy="86" r="1.6" fill="#FFFFFF" opacity="0.10"/><circle cx="566" cy="132" r="1.6" fill="#FFFFFF" opacity="0.10"/><circle cx="566" cy="178" r="1.6" fill="#FFFFFF" opacity="0.10"/><circle cx="566" cy="224" r="1.6" fill="#FFFFFF" opacity="0.10"/><circle cx="566" cy="270" r="1.6" fill="#FFFFFF" opacity="0.10"/><circle cx="566" cy="316" r="1.6" fill="#FFFFFF" opacity="0.10"/><circle cx="566" cy="362" r="1.6" fill="#FFFFFF" opacity="0.10"/><circle cx="566" cy="408" r="1.6" fill="#FFFFFF" opacity="0.10"/><circle cx="566" cy="454" r="1.6" fill="#FFFFFF" opacity="0.10"/><circle cx="612" cy="40" r="1.6" fill="#FFFFFF" opacity="0.10"/><circle cx="612" cy="86" r="1.6" fill="#FFFFFF" opacity="0.10"/><circle cx="612" cy="132" r="1.6" fill="#FFFFFF" opacity="0.10"/><circle cx="612" cy="178" r="1.6" fill="#FFFFFF" opacity="0.10"/><circle cx="612" cy="224" r="1.6" fill="#FFFFFF" opacity="0.10"/><circle cx="612" cy="270" r="1.6" fill="#FFFFFF" opacity="0.10"/><circle cx="612" cy="316" r="1.6" fill="#FFFFFF" opacity="0.10"/><circle cx="612" cy="362" r="1.6" fill="#FFFFFF" opacity="0.10"/><circle cx="612" cy="408" r="1.6" fill="#FFFFFF" opacity="0.10"/><circle cx="612" cy="454" r="1.6" fill="#FFFFFF" opacity="0.10"/><circle cx="658" cy="40" r="1.6" fill="#FFFFFF" opacity="0.10"/><circle cx="658" cy="86" r="1.6" fill="#FFFFFF" opacity="0.10"/><circle cx="658" cy="132" r="1.6" fill="#FFFFFF" opacity="0.10"/><circle cx="658" cy="178" r="1.6" fill="#FFFFFF" opacity="0.10"/><circle cx="658" cy="224" r="1.6" fill="#FFFFFF" opacity="0.10"/><circle cx="658" cy="270" r="1.6" fill="#FFFFFF" opacity="0.10"/><circle cx="658" cy="316" r="1.6" fill="#FFFFFF" opacity="0.10"/><circle cx="658" cy="362" r="1.6" fill="#FFFFFF" opacity="0.10"/><circle cx="658" cy="408" r="1.6" fill="#FFFFFF" opacity="0.10"/><circle cx="658" cy="454" r="1.6" fill="#FFFFFF" opacity="0.10"/><circle cx="704" cy="40" r="1.6" fill="#FFFFFF" opacity="0.10"/><circle cx="704" cy="86" r="1.6" fill="#FFFFFF" opacity="0.10"/><circle cx="704" cy="132" r="1.6" fill="#FFFFFF" opacity="0.10"/><circle cx="704" cy="178" r="1.6" fill="#FFFFFF" opacity="0.10"/><circle cx="704" cy="224" r="1.6" fill="#FFFFFF" opacity="0.10"/><circle cx="704" cy="270" r="1.6" fill="#FFFFFF" opacity="0.10"/><circle cx="704" cy="316" r="1.6" fill="#FFFFFF" opacity="0.10"/><circle cx="704" cy="362" r="1.6" fill="#FFFFFF" opacity="0.10"/><circle cx="704" cy="408" r="1.6" fill="#FFFFFF" opacity="0.10"/><circle cx="704" cy="454" r="1.6" fill="#FFFFFF" opacity="0.10"/><circle cx="750" cy="40" r="1.6" fill="#FFFFFF" opacity="0.10"/><circle cx="750" cy="86" r="1.6" fill="#FFFFFF" opacity="0.10"/><circle cx="750" cy="132" r="1.6" fill="#FFFFFF" opacity="0.10"/><circle cx="750" cy="178" r="1.6" fill="#FFFFFF" opacity="0.10"/><circle cx="750" cy="224" r="1.6" fill="#FFFFFF" opacity="0.10"/><circle cx="750" cy="270" r="1.6" fill="#FFFFFF" opacity="0.10"/><circle cx="750" cy="316" r="1.6" fill="#FFFFFF" opacity="0.10"/><circle cx="750" cy="362" r="1.6" fill="#FFFFFF" opacity="0.10"/><circle cx="750" cy="408" r="1.6" fill="#FFFFFF" opacity="0.10"/><circle cx="750" cy="454" r="1.6" fill="#FFFFFF" opacity="0.10"/><circle cx="796" cy="40" r="1.6" fill="#FFFFFF" opacity="0.10"/><circle cx="796" cy="86" r="1.6" fill="#FFFFFF" opacity="0.10"/><circle cx="796" cy="132" r="1.6" fill="#FFFFFF" opacity="0.10"/><circle cx="796" cy="178" r="1.6" fill="#FFFFFF" opacity="0.10"/><circle cx="796" cy="224" r="1.6" fill="#FFFFFF" opacity="0.10"/><circle cx="796" cy="270" r="1.6" fill="#FFFFFF" opacity="0.10"/><circle cx="796" cy="316" r="1.6" fill="#FFFFFF" opacity="0.10"/><circle cx="796" cy="362" r="1.6" fill="#FFFFFF" opacity="0.10"/><circle cx="796" cy="408" r="1.6" fill="#FFFFFF" opacity="0.10"/><circle cx="796" cy="454" r="1.6" fill="#FFFFFF" opacity="0.10"/><circle cx="842" cy="40" r="1.6" fill="#FFFFFF" opacity="0.10"/><circle cx="842" cy="86" r="1.6" fill="#FFFFFF" opacity="0.10"/><circle cx="842" cy="132" r="1.6" fill="#FFFFFF" opacity="0.10"/><circle cx="842" cy="178" r="1.6" fill="#FFFFFF" opacity="0.10"/><circle cx="842" cy="224" r="1.6" fill="#FFFFFF" opacity="0.10"/><circle cx="842" cy="270" r="1.6" fill="#FFFFFF" opacity="0.10"/><circle cx="842" cy="316" r="1.6" fill="#FFFFFF" opacity="0.10"/><circle cx="842" cy="362" r="1.6" fill="#FFFFFF" opacity="0.10"/><circle cx="842" cy="408" r="1.6" fill="#FFFFFF" opacity="0.10"/><circle cx="842" cy="454" r="1.6" fill="#FFFFFF" opacity="0.10"/><circle cx="888" cy="40" r="1.6" fill="#FFFFFF" opacity="0.10"/><circle cx="888" cy="86" r="1.6" fill="#FFFFFF" opacity="0.10"/><circle cx="888" cy="132" r="1.6" fill="#FFFFFF" opacity="0.10"/><circle cx="888" cy="178" r="1.6" fill="#FFFFFF" opacity="0.10"/><circle cx="888" cy="224" r="1.6" fill="#FFFFFF" opacity="0.10"/><circle cx="888" cy="270" r="1.6" fill="#FFFFFF" opacity="0.10"/><circle cx="888" cy="316" r="1.6" fill="#FFFFFF" opacity="0.10"/><circle cx="888" cy="362" r="1.6" fill="#FFFFFF" opacity="0.10"/><circle cx="888" cy="408" r="1.6" fill="#FFFFFF" opacity="0.10"/><circle cx="888" cy="454" r="1.6" fill="#FFFFFF" opacity="0.10"/><circle cx="934" cy="40" r="1.6" fill="#FFFFFF" opacity="0.10"/><circle cx="934" cy="86" r="1.6" fill="#FFFFFF" opacity="0.10"/><circle cx="934" cy="132" r="1.6" fill="#FFFFFF" opacity="0.10"/><circle cx="934" cy="178" r="1.6" fill="#FFFFFF" opacity="0.10"/><circle cx="934" cy="224" r="1.6" fill="#FFFFFF" opacity="0.10"/><circle cx="934" cy="270" r="1.6" fill="#FFFFFF" opacity="0.10"/><circle cx="934" cy="316" r="1.6" fill="#FFFFFF" opacity="0.10"/><circle cx="934" cy="362" r="1.6" fill="#FFFFFF" opacity="0.10"/><circle cx="934" cy="408" r="1.6" fill="#FFFFFF" opacity="0.10"/><circle cx="934" cy="454" r="1.6" fill="#FFFFFF" opacity="0.10"/><circle cx="980" cy="40" r="1.6" fill="#FFFFFF" opacity="0.10"/><circle cx="980" cy="86" r="1.6" fill="#FFFFFF" opacity="0.10"/><circle cx="980" cy="132" r="1.6" fill="#FFFFFF" opacity="0.10"/><circle cx="980" cy="178" r="1.6" fill="#FFFFFF" opacity="0.10"/><circle cx="980" cy="224" r="1.6" fill="#FFFFFF" opacity="0.10"/><circle cx="980" cy="270" r="1.6" fill="#FFFFFF" opacity="0.10"/><circle cx="980" cy="316" r="1.6" fill="#FFFFFF" opacity="0.10"/><circle cx="980" cy="362" r="1.6" fill="#FFFFFF" opacity="0.10"/><circle cx="980" cy="408" r="1.6" fill="#FFFFFF" opacity="0.10"/><circle cx="980" cy="454" r="1.6" fill="#FFFFFF" opacity="0.10"/><circle cx="1026" cy="40" r="1.6" fill="#FFFFFF" opacity="0.10"/><circle cx="1026" cy="86" r="1.6" fill="#FFFFFF" opacity="0.10"/><circle cx="1026" cy="132" r="1.6" fill="#FFFFFF" opacity="0.10"/><circle cx="1026" cy="178" r="1.6" fill="#FFFFFF" opacity="0.10"/><circle cx="1026" cy="224" r="1.6" fill="#FFFFFF" opacity="0.10"/><circle cx="1026" cy="270" r="1.6" fill="#FFFFFF" opacity="0.10"/><circle cx="1026" cy="316" r="1.6" fill="#FFFFFF" opacity="0.10"/><circle cx="1026" cy="362" r="1.6" fill="#FFFFFF" opacity="0.10"/><circle cx="1026" cy="408" r="1.6" fill="#FFFFFF" opacity="0.10"/><circle cx="1026" cy="454" r="1.6" fill="#FFFFFF" opacity="0.10"/><circle cx="1072" cy="40" r="1.6" fill="#FFFFFF" opacity="0.10"/><circle cx="1072" cy="86" r="1.6" fill="#FFFFFF" opacity="0.10"/><circle cx="1072" cy="132" r="1.6" fill="#FFFFFF" opacity="0.10"/><circle cx="1072" cy="178" r="1.6" fill="#FFFFFF" opacity="0.10"/><circle cx="1072" cy="224" r="1.6" fill="#FFFFFF" opacity="0.10"/><circle cx="1072" cy="270" r="1.6" fill="#FFFFFF" opacity="0.10"/><circle cx="1072" cy="316" r="1.6" fill="#FFFFFF" opacity="0.10"/><circle cx="1072" cy="362" r="1.6" fill="#FFFFFF" opacity="0.10"/><circle cx="1072" cy="408" r="1.6" fill="#FFFFFF" opacity="0.10"/><circle cx="1072" cy="454" r="1.6" fill="#FFFFFF" opacity="0.10"/><circle cx="1118" cy="40" r="1.6" fill="#FFFFFF" opacity="0.10"/><circle cx="1118" cy="86" r="1.6" fill="#FFFFFF" opacity="0.10"/><circle cx="1118" cy="132" r="1.6" fill="#FFFFFF" opacity="0.10"/><circle cx="1118" cy="178" r="1.6" fill="#FFFFFF" opacity="0.10"/><circle cx="1118" cy="224" r="1.6" fill="#FFFFFF" opacity="0.10"/><circle cx="1118" cy="270" r="1.6" fill="#FFFFFF" opacity="0.10"/><circle cx="1118" cy="316" r="1.6" fill="#FFFFFF" opacity="0.10"/><circle cx="1118" cy="362" r="1.6" fill="#FFFFFF" opacity="0.10"/><circle cx="1118" cy="408" r="1.6" fill="#FFFFFF" opacity="0.10"/><circle cx="1118" cy="454" r="1.6" fill="#FFFFFF" opacity="0.10"/><circle cx="1164" cy="40" r="1.6" fill="#FFFFFF" opacity="0.10"/><circle cx="1164" cy="86" r="1.6" fill="#FFFFFF" opacity="0.10"/><circle cx="1164" cy="132" r="1.6" fill="#FFFFFF" opacity="0.10"/><circle cx="1164" cy="178" r="1.6" fill="#FFFFFF" opacity="0.10"/><circle cx="1164" cy="224" r="1.6" fill="#FFFFFF" opacity="0.10"/><circle cx="1164" cy="270" r="1.6" fill="#FFFFFF" opacity="0.10"/><circle cx="1164" cy="316" r="1.6" fill="#FFFFFF" opacity="0.10"/><circle cx="1164" cy="362" r="1.6" fill="#FFFFFF" opacity="0.10"/><circle cx="1164" cy="408" r="1.6" fill="#FFFFFF" opacity="0.10"/><circle cx="1164" cy="454" r="1.6" fill="#FFFFFF" opacity="0.10"/><circle cx="1210" cy="40" r="1.6" fill="#FFFFFF" opacity="0.10"/><circle cx="1210" cy="86" r="1.6" fill="#FFFFFF" opacity="0.10"/><circle cx="1210" cy="132" r="1.6" fill="#FFFFFF" opacity="0.10"/><circle cx="1210" cy="178" r="1.6" fill="#FFFFFF" opacity="0.10"/><circle cx="1210" cy="224" r="1.6" fill="#FFFFFF" opacity="0.10"/><circle cx="1210" cy="270" r="1.6" fill="#FFFFFF" opacity="0.10"/><circle cx="1210" cy="316" r="1.6" fill="#FFFFFF" opacity="0.10"/><circle cx="1210" cy="362" r="1.6" fill="#FFFFFF" opacity="0.10"/><circle cx="1210" cy="408" r="1.6" fill="#FFFFFF" opacity="0.10"/><circle cx="1210" cy="454" r="1.6" fill="#FFFFFF" opacity="0.10"/><circle cx="1256" cy="40" r="1.6" fill="#FFFFFF" opacity="0.10"/><circle cx="1256" cy="86" r="1.6" fill="#FFFFFF" opacity="0.10"/><circle cx="1256" cy="132" r="1.6" fill="#FFFFFF" opacity="0.10"/><circle cx="1256" cy="178" r="1.6" fill="#FFFFFF" opacity="0.10"/><circle cx="1256" cy="224" r="1.6" fill="#FFFFFF" opacity="0.10"/><circle cx="1256" cy="270" r="1.6" fill="#FFFFFF" opacity="0.10"/><circle cx="1256" cy="316" r="1.6" fill="#FFFFFF" opacity="0.10"/><circle cx="1256" cy="362" r="1.6" fill="#FFFFFF" opacity="0.10"/><circle cx="1256" cy="408" r="1.6" fill="#FFFFFF" opacity="0.10"/><circle cx="1256" cy="454" r="1.6" fill="#FFFFFF" opacity="0.10"/><circle cx="1302" cy="40" r="1.6" fill="#FFFFFF" opacity="0.10"/><circle cx="1302" cy="86" r="1.6" fill="#FFFFFF" opacity="0.10"/><circle cx="1302" cy="132" r="1.6" fill="#FFFFFF" opacity="0.10"/><circle cx="1302" cy="178" r="1.6" fill="#FFFFFF" opacity="0.10"/><circle cx="1302" cy="224" r="1.6" fill="#FFFFFF" opacity="0.10"/><circle cx="1302" cy="270" r="1.6" fill="#FFFFFF" opacity="0.10"/><circle cx="1302" cy="316" r="1.6" fill="#FFFFFF" opacity="0.10"/><circle cx="1302" cy="362" r="1.6" fill="#FFFFFF" opacity="0.10"/><circle cx="1302" cy="408" r="1.6" fill="#FFFFFF" opacity="0.10"/><circle cx="1302" cy="454" r="1.6" fill="#FFFFFF" opacity="0.10"/><circle cx="1348" cy="40" r="1.6" fill="#FFFFFF" opacity="0.10"/><circle cx="1348" cy="86" r="1.6" fill="#FFFFFF" opacity="0.10"/><circle cx="1348" cy="132" r="1.6" fill="#FFFFFF" opacity="0.10"/><circle cx="1348" cy="178" r="1.6" fill="#FFFFFF" opacity="0.10"/><circle cx="1348" cy="224" r="1.6" fill="#FFFFFF" opacity="0.10"/><circle cx="1348" cy="270" r="1.6" fill="#FFFFFF" opacity="0.10"/><circle cx="1348" cy="316" r="1.6" fill="#FFFFFF" opacity="0.10"/><circle cx="1348" cy="362" r="1.6" fill="#FFFFFF" opacity="0.10"/><circle cx="1348" cy="408" r="1.6" fill="#FFFFFF" opacity="0.10"/><circle cx="1348" cy="454" r="1.6" fill="#FFFFFF" opacity="0.10"/><circle cx="1394" cy="40" r="1.6" fill="#FFFFFF" opacity="0.10"/><circle cx="1394" cy="86" r="1.6" fill="#FFFFFF" opacity="0.10"/><circle cx="1394" cy="132" r="1.6" fill="#FFFFFF" opacity="0.10"/><circle cx="1394" cy="178" r="1.6" fill="#FFFFFF" opacity="0.10"/><circle cx="1394" cy="224" r="1.6" fill="#FFFFFF" opacity="0.10"/><circle cx="1394" cy="270" r="1.6" fill="#FFFFFF" opacity="0.10"/><circle cx="1394" cy="316" r="1.6" fill="#FFFFFF" opacity="0.10"/><circle cx="1394" cy="362" r="1.6" fill="#FFFFFF" opacity="0.10"/><circle cx="1394" cy="408" r="1.6" fill="#FFFFFF" opacity="0.10"/><circle cx="1394" cy="454" r="1.6" fill="#FFFFFF" opacity="0.10"/><circle cx="1440" cy="40" r="1.6" fill="#FFFFFF" opacity="0.10"/><circle cx="1440" cy="86" r="1.6" fill="#FFFFFF" opacity="0.10"/><circle cx="1440" cy="132" r="1.6" fill="#FFFFFF" opacity="0.10"/><circle cx="1440" cy="178" r="1.6" fill="#FFFFFF" opacity="0.10"/><circle cx="1440" cy="224" r="1.6" fill="#FFFFFF" opacity="0.10"/><circle cx="1440" cy="270" r="1.6" fill="#FFFFFF" opacity="0.10"/><circle cx="1440" cy="316" r="1.6" fill="#FFFFFF" opacity="0.10"/><circle cx="1440" cy="362" r="1.6" fill="#FFFFFF" opacity="0.10"/><circle cx="1440" cy="408" r="1.6" fill="#FFFFFF" opacity="0.10"/><circle cx="1440" cy="454" r="1.6" fill="#FFFFFF" opacity="0.10"/><circle cx="1486" cy="40" r="1.6" fill="#FFFFFF" opacity="0.10"/><circle cx="1486" cy="86" r="1.6" fill="#FFFFFF" opacity="0.10"/><circle cx="1486" cy="132" r="1.6" fill="#FFFFFF" opacity="0.10"/><circle cx="1486" cy="178" r="1.6" fill="#FFFFFF" opacity="0.10"/><circle cx="1486" cy="224" r="1.6" fill="#FFFFFF" opacity="0.10"/><circle cx="1486" cy="270" r="1.6" fill="#FFFFFF" opacity="0.10"/><circle cx="1486" cy="316" r="1.6" fill="#FFFFFF" opacity="0.10"/><circle cx="1486" cy="362" r="1.6" fill="#FFFFFF" opacity="0.10"/><circle cx="1486" cy="408" r="1.6" fill="#FFFFFF" opacity="0.10"/><circle cx="1486" cy="454" r="1.6" fill="#FFFFFF" opacity="0.10"/>
<g transform="translate(110,205)"><rect width="90" height="90" rx="22" fill="#FFFFFF"/></g>
<path d="M 167.05 232.80 A 21 21 0 1 1 137.80 237.95" fill="none" stroke="#2563EB" stroke-width="6" stroke-linecap="round"/><path d="M 137.80 237.95 L 125.12 242.99 L 137.40 251.60 Z" fill="#2563EB"/><circle cx="155" cy="250" r="6.60" fill="#2563EB"/>
<text x="230" y="270" font-family="Inter, 'DejaVu Sans', Arial, sans-serif" font-size="64" font-weight="800" fill="#FFFFFF" letter-spacing="-2">CVOps</text>
<text x="232" y="318" font-family="Inter, 'DejaVu Sans', Arial, sans-serif" font-size="26" font-weight="500" fill="#EAF6FF">One platform for the whole ML lifecycle</text>
</svg>